<?xml version="1.0" encoding="utf-8"?>
<!-- Generator: Adobe Illustrator 21.0.0, SVG Export Plug-In . SVG Version: 6.00 Build 0)  -->
<svg version="1.1" xmlns="http://www.w3.org/2000/svg" xmlns:xlink="http://www.w3.org/1999/xlink" x="0px" y="0px"
	 viewBox="0 0 64.9 8.4" style="enable-background:new 0 0 64.9 8.4;" xml:space="preserve">
<style type="text/css">
	.st0{fill:url(#SVGID_1_);}
	.st1{fill:url(#SVGID_2_);}
	.st2{fill:url(#SVGID_3_);}
	.st3{fill:url(#SVGID_4_);}
	.st4{fill:url(#SVGID_5_);}
	.st5{fill:url(#SVGID_6_);}
	.st6{fill:url(#SVGID_7_);}
	.st7{fill:url(#SVGID_8_);}
	.st8{fill:url(#SVGID_9_);}
</style>
<g id="Layer_1">
	<linearGradient id="SVGID_1_" gradientUnits="userSpaceOnUse" x1="9.2109" y1="4.1924" x2="0" y2="4.1924">
		<stop  offset="0" style="stop-color:#EABD2C"/>
		<stop  offset="0.9985" style="stop-color:#EA6C2C"/>
	</linearGradient>
	<path class="st0" d="M8.2,1c0.7,0.7,1,1.5,1,2.4V5c0,0.9-0.3,1.7-1,2.4c-0.7,0.7-1.5,1-2.4,1H0V6.7h5.9c0.5,0,0.9-0.2,1.2-0.5
		S7.5,5.5,7.5,5V3.4c0-0.5-0.2-0.9-0.5-1.2S6.3,1.7,5.9,1.7H0V0h5.9C6.8,0,7.5,0.3,8.2,1z"/>
	<linearGradient id="SVGID_2_" gradientUnits="userSpaceOnUse" x1="28.6348" y1="4.1924" x2="20.1094" y2="4.1924">
		<stop  offset="0" style="stop-color:#EABD2C"/>
		<stop  offset="0.9985" style="stop-color:#EA6C2C"/>
	</linearGradient>
	<path class="st1" d="M28.6,0v1.7h-8.5V0H28.6z M20.1,5V3.4h8.5V5H20.1z M28.6,6.7v1.7h-8.5V6.7H28.6z"/>
	<linearGradient id="SVGID_3_" gradientUnits="userSpaceOnUse" x1="54.0527" y1="4.1924" x2="41.7598" y2="4.1924">
		<stop  offset="0" style="stop-color:#EABD2C"/>
		<stop  offset="0.9985" style="stop-color:#EA6C2C"/>
	</linearGradient>
	<path class="st2" d="M43.4,2.4v6h-1.7V0h1.8l4.3,5l4.3-5h1.8v8.4h-1.7v-6l-4.5,5.2L43.4,2.4z"/>
	<g>
		<linearGradient id="SVGID_4_" gradientUnits="userSpaceOnUse" x1="64.875" y1="4.1924" x2="55.2246" y2="4.1924">
			<stop  offset="0" style="stop-color:#EABD2C"/>
			<stop  offset="0.9985" style="stop-color:#EA6C2C"/>
		</linearGradient>
		<polygon class="st3" points="57.5,0 55.2,0 58.9,4.2 55.2,8.4 57.5,8.4 60,5.5 62.6,8.4 64.9,8.4 		"/>
		<linearGradient id="SVGID_5_" gradientUnits="userSpaceOnUse" x1="64.875" y1="0.4648" x2="61.8149" y2="0.4648">
			<stop  offset="0" style="stop-color:#EABD2C"/>
			<stop  offset="0.9985" style="stop-color:#EA6C2C"/>
		</linearGradient>
		<polygon class="st4" points="64.1,0.9 64.9,0 62.6,0 61.8,0.9 		"/>
	</g>
	<g>
		<linearGradient id="SVGID_6_" gradientUnits="userSpaceOnUse" x1="37.7939" y1="4.1924" x2="29.8066" y2="4.1924">
			<stop  offset="0" style="stop-color:#EABD2C"/>
			<stop  offset="0.9985" style="stop-color:#EA6C2C"/>
		</linearGradient>
		<polygon class="st5" points="35.9,3.2 37.8,3.2 36.1,0 34.3,0 29.8,8.4 31.7,8.4 35.2,1.9 		"/>
		<linearGradient id="SVGID_7_" gradientUnits="userSpaceOnUse" x1="40.5879" y1="6.7886" x2="36.9646" y2="6.7886">
			<stop  offset="0" style="stop-color:#EABD2C"/>
			<stop  offset="0.9985" style="stop-color:#EA6C2C"/>
		</linearGradient>
		<polygon class="st6" points="37,5.2 38.7,8.4 40.6,8.4 38.9,5.2 		"/>
	</g>
	<g>
		<linearGradient id="SVGID_8_" gradientUnits="userSpaceOnUse" x1="18.8776" y1="2.8265" x2="10.3873" y2="2.8265">
			<stop  offset="0" style="stop-color:#EABD2C"/>
			<stop  offset="0.9985" style="stop-color:#EA6C2C"/>
		</linearGradient>
		<path class="st7" d="M17.3,5.3c0.5-0.2,0.9-0.6,1.1-1s0.4-0.9,0.4-1.5c0-0.5-0.1-1-0.4-1.4s-0.6-0.8-1-1S16.6,0,16.1,0h-5.7v1.7
			h5.7c0.3,0,0.6,0.1,0.8,0.3s0.3,0.5,0.3,0.8s-0.1,0.6-0.3,0.8s-0.5,0.3-0.8,0.3h-5.7v1.7c0,0,4,0,5.2,0S17.3,5.3,17.3,5.3z"/>
		<linearGradient id="SVGID_9_" gradientUnits="userSpaceOnUse" x1="18.942" y1="8.0043" x2="16.6316" y2="8.0043">
			<stop  offset="0" style="stop-color:#EABD2C"/>
			<stop  offset="0.9985" style="stop-color:#EA6C2C"/>
		</linearGradient>
		<polygon class="st8" points="16.6,7.6 17,8.4 18.9,8.4 18.5,7.6 		"/>
	</g>
</g>
<g id="Layer_2">
</g>
</svg>
