<?xml version="1.0" encoding="utf-8"?>
<!-- Generator: Adobe Illustrator 21.0.0, SVG Export Plug-In . SVG Version: 6.00 Build 0)  -->
<svg version="1.1" id="Layer_1" xmlns="http://www.w3.org/2000/svg" xmlns:xlink="http://www.w3.org/1999/xlink" x="0px" y="0px"
	 viewBox="0 0 34 20" style="enable-background:new 0 0 34 20;" xml:space="preserve">
<style type="text/css">
	.st0{font-family:'SignPainter-HouseScript';}
	.st1{font-size:12px;}
	.st2{font-size:8px;}
	.st3{fill:#FFFFFF;stroke:#000000;stroke-width:0.25;stroke-miterlimit:10;}
</style>
<text transform="matrix(0.9848 -0.1736 0.1736 0.9848 8.699 15.2841)" class="st0 st1">Dream</text>
<text transform="matrix(0.9848 -0.1736 0.1736 0.9848 7.8634 18.565)" class="st0 st2">Exchange</text>
<g>
	<g>
		<path class="st3" d="M0.8,13.4L0.8,13.4c-0.2-0.2-0.1-0.5,0.1-0.7L15.5,0.5c0.2-0.2,0.5-0.1,0.7,0.1l0,0c0.2,0.2,0.1,0.5-0.1,0.7
			L1.5,13.5C1.3,13.7,1,13.6,0.8,13.4z"/>
		<path d="M0.8,13.4L0.8,13.4c-0.2-0.2-0.1-0.5,0.1-0.7l10.7-9c0.2-0.2,0.5-0.1,0.7,0.1l0,0c0.2,0.2,0.1,0.5-0.1,0.7l-10.7,9
			C1.3,13.7,1,13.6,0.8,13.4z"/>
	</g>
	<polygon points="16.3,3.7 16.7,4.1 17.2,4 17,4.5 17.2,5 16.6,4.9 16.2,5.3 16.2,4.7 15.7,4.5 16.2,4.2 	"/>
	<polygon points="19.4,0.1 19.3,0.9 20,1.5 19.2,1.7 18.9,2.4 18.5,1.7 17.7,1.7 18.2,1.1 18,0.3 18.7,0.6 	"/>
	<polygon points="21.6,7 20.6,6 19.2,6.3 19.9,5 19.2,3.8 20.6,4 21.5,3 21.8,4.3 23.1,4.9 21.8,5.6 	"/>
</g>
</svg>
